# AST/ASF file generated using VICON BodyLanguage
# -----------------------------------------------
:version 1.10
:name VICON
:units
  mass 1.0
  length 0.45
  angle deg
:documentation
   .ast/.asf automatically generated from VICON data using
   VICON BodyBuilder and BodyLanguage model FoxedUp or BRILLIANT.MOD
:root
   order TX TY TZ RX RY RZ
   axis XYZ
   position 0 0 0  
   orientation 0 0 0 
:bonedata
  begin
     id 1 
     name lhipjoint
     direction 0.671379 -0.66392 0.329334 
     length 2.38647 
     axis 0 0 0  XYZ
  end
  begin
     id 2 
     name lfemur
     direction 0.34202 -0.939693 0  
     length 6.48179  
     axis 0 0 20  XYZ
    dof rx ry rz
    limits (-160.0 20.0)
           (-70.0 70.0)
           (-60.0 70.0)
  end
  begin
     id 3 
     name ltibia
     direction 0.34202 -0.939693 0   
     length 6.86524   
     axis 0 0 20   XYZ
    dof rx
    limits (-10.0 170.0)
  end
  begin
     id 4 
     name lfoot
     direction 0.204886 -0.562919 0.800715   
     length 1.73031   
     axis -90 7.62852e-016 20   XYZ
    dof rx rz
    limits (-45.0 90.0)
           (-70.0 20.0)
  end
  begin
     id 5 
     name ltoes
     direction 1.53548e-011 -4.21841e-011 1   
     length 0.828161   
     axis -90 7.62852e-016 20   XYZ
    dof rx
    limits (-90.0 20.0)
  end
  begin
     id 6 
     name rhipjoint
     direction -0.662732 -0.670855 0.332775   
     length 2.3618  
     axis 0 0 0  XYZ 
  end
  begin
     id 7 
     name rfemur
     direction -0.34202 -0.939693 0   
     length 6.3025   
     axis 0 0 -20   XYZ
    dof rx ry rz
    limits (-160.0 20.0)
           (-70.0 70.0)
           (-70.0 60.0)
  end
  begin
     id 8 
     name rtibia
     direction -0.34202 -0.939693 0   
     length 6.8732   
     axis 0 0 -20   XYZ
    dof rx
    limits (-10.0 170.0)
 end
 begin
     id 9 
     name rfoot
     direction -0.173856 -0.477665 0.861168   
     length 1.54784  
     axis -90 -7.62852e-016 -20   XYZ
    dof rx rz
    limits (-45.0 90.0)
           (-20.0 70.0)
  end
  begin
     id 10 
     name rtoes
     direction -1.53562e-011 -4.21802e-011 1   
     length 0.759618   
     axis -90 -7.62852e-016 -20   XYZ
    dof rx
    limits (-90.0 20.0)
  end
  begin
     id 11 
     name lowerback
     direction -0.0278357 0.999497 -0.0151789   
     length 1.97203   
     axis 0 0 0   XYZ
    dof rx ry rz
    limits (-20.0 45.0)
           (-30.0 30.0)
           (-30.0 30.0)
  end
  begin
     id 12 
     name upperback
     direction -0.00360622 0.997542 0.0699804   
     length 1.94709   
     axis 0 0 0   XYZ
    dof rx ry rz
    limits (-20.0 45.0)
           (-30.0 30.0)
           (-30.0 30.0)
  end
  begin
     id 13 
     name thorax
     direction 0.00907706 0.997048 0.0762461   
     length 1.95722   
     axis 0 0 0   XYZ
    dof rx ry rz
    limits (-20.0 45.0)
           (-30.0 30.0)
           (-30.0 30.0)
  end
  begin
     id 14 
     name lowerneck
     direction -0.0481835 0.99872 -0.0153927   
     length 1.63078   
     axis 0 0 0   XYZ
    dof rx ry rz
    limits (-20.0 45.0)
           (-30.0 30.0)
           (-30.0 30.0)
  end
  begin
     id 15 
     name upperneck
     direction 0.0859716 0.979226 -0.183644   
     length 1.62591   
     axis 0 0 0   XYZ
    dof rx ry rz
    limits (-20.0 45.0)
           (-30.0 30.0)
           (-30.0 30.0)
  end
  begin
     id 16
     name head
     direction 0.0324821 0.997629 -0.0606773  
     length 1.64811  
     axis 0 0 0   XYZ
    dof rx ry rz
    limits (-20.0 45.0)
           (-30.0 30.0)
           (-30.0 30.0)
  end
  begin
     id 17 
     name lclavicle
     direction 0.939609 0.311019 0.142835  
     length 3.70647  
     axis 0 0 0   XYZ
    dof ry rz
    limits (-20.0 10.0)
           (0.0 20.0)
  end
  begin
     id 18 
     name lhumerus
     direction 1 -4.48963e-011 -1.59838e-027   
     length 4.59207   
     axis 180 -30 -90   XYZ
    dof rx ry rz
    limits (-60.0 90.0)
           (-90.0 90.0)
           (-90.0 90.0)
  end
  begin
     id 19
     name lradius
     direction 1 -4.48957e-011 -1.3483e-026   
     length 2.98109   
     axis 180 -30 -90   XYZ
    dof rx
    limits (-10.0 170.0)
  end
  begin
     id 20
     name lwrist
     direction 1 -4.48954e-011 -3.11579e-026   
     length 1.49055   
     axis 2.00652e-014 90 90   XYZ
    dof ry
    limits (-180.0 0.0)
 end
  begin
     id 21 
     name lhand
     direction 1 -4.4911e-011 -6.23158e-026   
     length 0.480203   
     axis 3.97628e-014 90 90   XYZ
    dof rx rz
    limits (-90.0 90.0)
           (-45.0 45.0)
  end
  begin
     id 22 
     name lfingers
     direction 1 -4.48893e-011 -1.24632e-025   
     length 0.387152   
     axis 7.95256e-014 90 90   XYZ
    dof rx
    limits (0.0 90.0)
  end
  begin
     id 23
     name lthumb
     direction 0.707107 -6.35013e-011 0.707107   
     length 0.555875   
     axis -90 45 2.85299e-015   XYZ
    dof rx rz
    limits (-45.0 45.0)
           (-45.0 45.0)
  end
  begin
     id 24 
     name rclavicle
     direction -0.950396 0.30392 0.0661859   
     length 3.70894  
     axis 0 0 0   XYZ 
    dof ry rz
    limits (-10.0 20.0)
           (-20.0 0.0)
  end
  begin
     id 25 
     name rhumerus
     direction -1 -4.48957e-011 -2.96677e-027  
     length 4.76508   
     axis 180 30 90   XYZ
    dof rx ry rz
    limits (-90.0 60.0)
           (-90.0 90.0)
           (-90.0 90.0)
  end
  begin
     id 26 
     name rradius
     direction -1 -4.48974e-011 -1.44501e-026   
     length 2.78902   
     axis 180 30 90   XYZ
    dof rx
    limits (-10.0 170.0)
  end
  begin
     id 27 
     name rwrist
     direction -1 -4.48978e-011 -3.11579e-026   
     length 1.39451   
     axis 2.00652e-014 -90 -90   XYZ
    dof ry
    limits (-180.0 0.0)
  end
  begin
     id 28
     name rhand
     direction -1 -4.48956e-011 -6.23158e-026   
     length 0.721303   
     axis 3.97628e-014 -90 -90   XYZ
    dof rx rz
    limits (-90.0 90.0)
           (-45.0 45.0)
  end
  begin
     id 29
     name rfingers
     direction -1 -4.4899e-011 -1.24632e-025   
     length 0.581533   
     axis 7.95256e-014 -90 -90   XYZ
    dof rx
    limits (0.0 90.0)
  end
  begin
     id 30
     name rthumb
     direction -0.707107 -6.34911e-011 0.707107   
     length 0.834968   
     axis -90 -45 -2.85299e-015   XYZ
    dof rx rz
    limits (-45.0 45.0)
           (-45.0 45.0)
  end
:hierarchy
  begin
    root lhipjoint rhipjoint lowerback
    lhipjoint lfemur
    lfemur ltibia
    ltibia lfoot
    lfoot ltoes
    rhipjoint rfemur
    rfemur rtibia
    rtibia rfoot
    rfoot rtoes
    lowerback upperback
    upperback thorax
    thorax lowerneck lclavicle rclavicle
    lowerneck upperneck
    upperneck head
    lclavicle lhumerus
    lhumerus lradius
    lradius lwrist
    lwrist lhand lthumb
    lhand lfingers
    rclavicle rhumerus
    rhumerus rradius
    rradius rwrist
    rwrist rhand rthumb
    rhand rfingers
  end

#!OML:ASF I:\salsa\salsa 7_09\Patient 1\Session 1\dancerfemale.ASF
:FULLY-SPECIFIED
:DEGREES
66
root 20.4894 15.9385 -0.474695 -195.148 -87.1639 -163.501
lowerback 0.681972 1.23167 -1.25872
upperback -4.43769 1.54236 0.0841776
thorax -4.99879 0.792088 0.716147
lowerneck -1.40154 -3.50737 -8.13791
upperneck 6.17785 -5.27881 11.7537
head 2.57377 -2.55342 4.73666
rclavicle -5.889e-015 -2.98177e-015
rhumerus -45.737 -19.1301 -83.142
rradius 56.1702
rwrist -4.35936
rhand 5.84206 44.5085
rfingers 7.12502
rthumb 31.1728 17.1401
lclavicle -5.889e-015 -2.98177e-015
lhumerus -47.4138 20.4545 75.9891
lradius 36.3046
lwrist -16.5167
lhand -27.2486 41.7368
lfingers 7.12502
lthumb -0.660223 71.7156
rfemur -3.38891 -1.54758 22.2127
rtibia 14.1968
rfoot 0.918974 -35.5847
rtoes 51.5491
lfemur -16.4699 0.256425 -18.7912
ltibia 38.7467
lfoot -27.0379 -1.8988
ltoes -29.6311
67
root 20.4907 15.9369 -0.470664 -195.283 -87.2769 -163.549
lowerback 0.847075 1.166 -1.39819
upperback -4.55297 1.44257 0.050176
thorax -5.21475 0.747973 0.759371
lowerneck -1.04426 -3.42764 -7.89412
upperneck 6.28689 -5.22135 11.7836
head 2.53432 -2.53231 4.7139
rclavicle -2.27111e-014 -7.95139e-016
rhumerus -46.1868 -19.3672 -82.986
rradius 55.6026
rwrist -3.65137
rhand 6.15985 44.2838
rfingers 7.12502
rthumb 31.4756 16.9741
lclavicle -2.27111e-014 -7.95139e-016
lhumerus -47.8038 20.5898 75.4618
lradius 36.52
lwrist -17.6657
lhand -25.5498 43.6395
lfingers 7.12502
lthumb 0.980513 73.617
rfemur -3.20506 -1.50335 22.139
rtibia 14.3131
rfoot 0.257233 -36.1252
rtoes 51.1326
lfemur -16.2371 -0.147991 -18.8618
ltibia 38.6909
lfoot -27.0853 -1.60406
ltoes -29.6778
68
root 20.4925 15.9417 -0.465451 -194.427 -87.3625 -164.504
lowerback 0.933334 1.20197 -1.525
upperback -4.59518 1.48257 0.0267245
thorax -5.31255 0.773105 0.801456
lowerneck -0.917314 -3.45517 -7.82864
upperneck 6.32153 -5.28147 11.8631
head 2.52952 -2.56406 4.72757
rclavicle 6.70898e-016 -2.98177e-015
rhumerus -46.5127 -19.8537 -82.5709
rradius 55.0452
rwrist -2.89753
rhand 6.42245 44.1164
rfingers 7.12502
rthumb 31.7258 16.8558
lclavicle 6.70898e-016 -2.98177e-015
lhumerus -47.8982 20.7466 75.1462
lradius 36.9331
lwrist -19.8792
lhand -21.9133 47.5733
lfingers 7.12502
lthumb 4.49254 77.5056
rfemur -3.09437 -1.40441 22.0189
rtibia 14.3107
rfoot 0.124923 -36.0471
rtoes 50.8673
lfemur -16.1859 0.64029 -18.9063
ltibia 38.6824
lfoot -27.017 -2.42685
ltoes -29.5058
69
root 20.4948 15.9399 -0.460708 -195.626 -87.4988 -163.374
lowerback 0.942455 1.19773 -1.55908
upperback -4.57497 1.47708 0.0411722
thorax -5.29777 0.772339 0.835811
lowerneck -0.838815 -3.49608 -7.86441
upperneck 6.21921 -5.34157 11.9887
head 2.49644 -2.59627 4.77185
rclavicle 8.32411e-015 1.19271e-015
rhumerus -46.748 -20.3105 -82.1152
rradius 54.5517
rwrist -2.22407
rhand 6.70792 43.9134
rfingers 7.12502
rthumb 31.9976 16.707
lclavicle 8.32411e-015 1.19271e-015
lhumerus -47.8173 20.9568 75.0167
lradius 36.9395
lwrist -20.7763
lhand -20.958 48.7107
lfingers 7.12502
lthumb 5.41488 78.6215
rfemur -2.94807 -1.19157 21.9681
rtibia 14.3228
rfoot -0.756832 -35.8518
rtoes 49.7762
lfemur -16.2108 1.39152 -18.8618
ltibia 38.7214
lfoot -26.9167 -3.31074
ltoes -29.19
70
root 20.4971 15.9313 -0.456415 -197.304 -87.6835 -161.75
lowerback 0.873817 1.15208 -1.57011
upperback -4.50086 1.42036 0.0655859
thorax -5.18001 0.744944 0.872702
lowerneck -0.821124 -3.51409 -8.04982
upperneck 6.04318 -5.36111 12.2172
head 2.45429 -2.60775 4.87374
rclavicle -1.48592e-014 -1.19271e-015
rhumerus -46.9325 -20.702 -81.6824
rradius 54.174
rwrist -1.66003
rhand 7.03259 43.632
rfingers 7.12502
rthumb 32.3067 16.488
lclavicle -1.48592e-014 -1.19271e-015
lhumerus -47.6557 21.2542 75.0128
lradius 36.6847
lwrist -20.3183
lhand -22.3928 46.6131
lfingers 7.12502
lthumb 4.02949 76.5547
rfemur -2.74129 -0.908866 21.8951
rtibia 14.3275
rfoot -2.29183 -36.6354
rtoes 48.1962
lfemur -16.263 1.64717 -18.8436
ltibia 38.798
lfoot -26.8535 -3.75459
ltoes -28.9907
71
root 20.4979 15.9268 -0.451325 -197.192 -87.8832 -161.916
lowerback 0.825529 1.09015 -1.63992
upperback -4.50424 1.33394 0.0336885
thorax -5.15457 0.70387 0.884424
lowerneck -0.641754 -3.48743 -8.09297
upperneck 5.9002 -5.33182 12.3487
head 2.3835 -2.60001 4.92673
rclavicle 1.60767e-014 -5.1684e-015
rhumerus -47.3592 -21.004 -81.3122
rradius 53.9698
rwrist -1.33642
rhand 7.33101 43.3332
rfingers 7.12502
rthumb 32.5907 16.2475
lclavicle 1.60767e-014 -5.1684e-015
lhumerus -47.7021 21.3198 74.9731
lradius 36.6961
lwrist -19.8056
lhand -23.4133 45.6813
lfingers 7.12502
lthumb 3.04398 75.6394
rfemur -2.57522 -0.880065 21.7739
rtibia 14.2385
rfoot -2.99298 -37.1871
rtoes 47.4623
lfemur -16.2998 1.70157 -18.9367
ltibia 38.8911
lfoot -26.8516 -3.95838
ltoes -28.9909
72
root 20.4969 15.9242 -0.444796 -197.579 -88.0767 -161.588
lowerback 0.773537 1.02068 -1.66939
upperback -4.55593 1.2357 -0.0281741
thorax -5.17558 0.654428 0.842697
lowerneck -0.255729 -3.44138 -7.8839
upperneck 5.68753 -5.27708 12.3099
head 2.24441 -2.58665 4.88974
rclavicle -9.74045e-015 -7.55382e-015
rhumerus -47.947 -21.2444 -80.9786
rradius 53.8745
rwrist -1.4
rhand 7.63076 42.9802
rfingers 7.12502
rthumb 32.8759 15.9539
lclavicle -9.74045e-015 -7.55382e-015
lhumerus -47.8444 21.2145 74.928
lradius 36.817
lwrist -19.3466
lhand -24.1707 45.7453
lfingers 7.12502
lthumb 2.31252 75.7125
rfemur -2.46122 -0.966468 21.6898
rtibia 14.1861
rfoot -3.07163 -37.3074
rtoes 47.3861
lfemur -16.2994 1.738 -19.0163
ltibia 38.9595
lfoot -26.8358 -4.14792
ltoes -28.9904
73
root 20.4958 15.9225 -0.437965 -201.152 -88.2764 -158.064
lowerback 0.706325 0.980083 -1.56184
upperback -4.54258 1.18567 -0.0492979
thorax -5.11859 0.624175 0.764671
lowerneck -0.0745037 -3.4717 -7.8669
upperneck 5.47529 -5.30941 12.3257
head 2.15537 -2.61115 4.89495
rclavicle -1.02126e-014 5.96354e-016
rhumerus -48.3857 -21.4865 -80.6037
rradius 53.8183
rwrist -1.85807
rhand 7.83143 42.5915
rfingers 7.12502
rthumb 33.0667 15.6054
lclavicle -1.02126e-014 5.96354e-016
lhumerus -47.8183 21.2354 75.0075
lradius 36.9365
lwrist -19.0147
lhand -24.8072 45.47
lfingers 7.12502
lthumb 1.69779 75.443
rfemur -2.44949 -1.06543 21.7058
rtibia 14.3297
rfoot -3.18299 -37.4162
rtoes 47.3774
lfemur -16.2776 1.67932 -18.9984
ltibia 38.9591
lfoot -26.7942 -4.349
ltoes -28.9602
74
root 20.4942 15.924 -0.432206 -206.103 -88.4659 -153.15
lowerback 0.681639 0.906632 -1.4406
upperback -4.57059 1.09059 -0.0562445
thorax -5.12848 0.571501 0.694813
lowerneck 0.0496982 -3.48703 -7.95989
upperneck 5.3881 -5.33013 12.3707
head 2.11477 -2.62781 4.92654
rclavicle 1.94312e-014 1.19271e-015
rhumerus -48.844 -21.5359 -80.3082
rradius 53.8229
rwrist -2.55455
rhand 7.96294 42.1888
rfingers 7.12502
rthumb 33.1918 15.2293
lclavicle 1.94312e-014 1.19271e-015
lhumerus -47.8924 21.3129 75.0323
lradius 37.186
lwrist -18.6413
lhand -24.608 45.5845
lfingers 7.12502
lthumb 1.89014 75.5559
rfemur -2.5161 -1.25038 21.7709
rtibia 14.5303
rfoot -2.74002 -37.2283
rtoes 47.8643
lfemur -16.2479 1.63841 -18.963
ltibia 38.9087
lfoot -26.7787 -4.62007
ltoes -29.0206
75
root 20.4907 15.9282 -0.427039 -208.81 -88.7008 -150.54
lowerback 0.671067 0.820026 -1.42739
upperback -4.55852 0.973972 -0.0966524
thorax -5.10591 0.511966 0.651981
lowerneck 0.155069 -3.48965 -8.00612
upperneck 5.30989 -5.33546 12.4233
head 2.07731 -2.63533 4.9528
rclavicle -1.2921e-015 -5.56597e-015
rhumerus -49.2481 -21.5092 -80.0795
rradius 53.8839
rwrist -3.39141
rhand 8.11493 41.7157
rfingers 7.12502
rthumb 33.3363 14.787
lclavicle -1.2921e-015 -5.56597e-015
lhumerus -47.9426 21.2932 75.109
lradius 37.456
lwrist -18.1881
lhand -24.5671 45.6293
lfingers 7.12502
lthumb 1.9297 75.6003
rfemur -2.53458 -1.51867 21.7492
rtibia 14.7108
rfoot -1.71543 -36.7256
rtoes 48.8028
lfemur -16.1181 1.63425 -19.0396
ltibia 38.824
lfoot -26.7387 -4.87354
ltoes -29.0206
76
root 20.4867 15.9267 -0.42173 -206.765 -88.9854 -152.739
lowerback 0.683252 0.761501 -1.51855
upperback -4.50321 0.890629 -0.183703
thorax -5.05313 0.472372 0.61756
lowerneck 0.246548 -3.48993 -8.10536
upperneck 5.15295 -5.33838 12.6233
head 2.02388 -2.64128 5.03375
rclavicle 2.88238e-015 4.37326e-015
rhumerus -49.5656 -21.5223 -79.8765
rradius 53.9648
rwrist -4.28421
rhand 8.16229 41.2441
rfingers 7.12502
rthumb 33.3813 14.3251
lclavicle 2.88238e-015 4.37326e-015
lhumerus -47.9161 21.1235 75.2921
lradius 37.7506
lwrist -17.8124
lhand -24.8801 45.5809
lfingers 7.12502
lthumb 1.62738 75.5544
rfemur -2.42973 -1.50004 21.5423
rtibia 14.9507
rfoot -2.13503 -37.2071
rtoes 48.369
lfemur -15.9136 1.60847 -19.2507
ltibia 38.7162
lfoot -26.6855 -5.04776
ltoes -29.0263
77
root 20.4829 15.9228 -0.416485 -202.611 -89.183 -156.952
lowerback 0.66003 0.751301 -1.56809
upperback -4.5074 0.871641 -0.265228
thorax -5.04342 0.462829 0.562266
lowerneck 0.366664 -3.484 -8.32896
upperneck 4.93084 -5.33422 12.9517
head 1.95228 -2.64619 5.17661
rclavicle 8.54774e-015 -7.95139e-015
rhumerus -49.8768 -21.5743 -79.6366
rradius 54.0289
rwrist -4.99329
rhand 7.97638 40.894
rfingers 7.12502
rthumb 33.2046 13.9371
lclavicle 8.54774e-015 -7.95139e-015
lhumerus -47.8971 20.9637 75.4752
lradius 37.9949
lwrist -17.5447
lhand -25.1312 45.6426
lfingers 7.12502
lthumb 1.38487 75.6178
rfemur -2.41164 -1.33378 21.3418
rtibia 15.2132
rfoot -3.45671 -38.4728
rtoes 47.2857
lfemur -15.8075 1.59225 -19.4335
ltibia 38.606
lfoot -26.6815 -5.17222
ltoes -29.1537
78
root 20.4802 15.9251 -0.410606 -201.338 -89.3074 -158.208
lowerback 0.59584 0.726222 -1.51138
upperback -4.53512 0.837015 -0.323072
thorax -5.03315 0.441409 0.473136
lowerneck 0.515137 -3.45687 -8.40432
upperneck 4.6548 -5.28616 13.0945
head 1.84712 -2.63087 5.23928
rclavicle -5.71506e-015 4.37326e-015
rhumerus -50.0577 -21.5712 -79.4369
rradius 54.0108
rwrist -5.42969
rhand 7.74798 40.7995
rfingers 7.12502
rthumb 32.9874 13.7967
lclavicle -5.71506e-015 4.37326e-015
lhumerus -47.9287 20.909 75.6084
lradius 38.2414
lwrist -17.2107
lhand -24.9708 45.9059
lfingers 7.12502
lthumb 1.53977 75.8801
rfemur -2.53328 -1.51254 21.2741
rtibia 15.3618
rfoot -3.19289 -38.8035
rtoes 47.7863
lfemur -15.788 1.56869 -19.5263
ltibia 38.53
lfoot -26.7315 -5.25411
ltoes -29.1972
79
root 20.4776 15.9275 -0.404597 -197.068 -89.4257 -162.511
lowerback 0.541232 0.677947 -1.48218
upperback -4.52269 0.771913 -0.38056
thorax -4.98629 0.406112 0.401417
lowerneck 0.782381 -3.41833 -8.304
upperneck 4.26035 -5.20827 13.0623
head 1.67573 -2.60594 5.22194
rclavicle -1.04362e-014 -3.37934e-015
rhumerus -50.0945 -21.6072 -79.2205
rradius 53.8508
rwrist -5.51321
rhand 7.70776 40.9743
rfingers 7.12502
rthumb 32.9491 13.9634
lclavicle -1.04362e-014 -3.37934e-015
lhumerus -47.9862 20.911 75.7031
lradius 38.5335
lwrist -16.842
lhand -24.6909 46.0234
lfingers 7.12502
lthumb 1.81009 75.9954
rfemur -2.55642 -1.76282 21.1761
rtibia 15.4261
rfoot -2.51206 -38.4159
rtoes 48.5159
lfemur -15.7183 1.56656 -19.6345
ltibia 38.493
lfoot -26.7931 -5.34932
ltoes -29.181
